<svg xmlns="http://www.w3.org/2000/svg" width="1200" height="780" viewBox="0 0 1200 780">
<defs>
  <linearGradient id="bg" x1="0" x2="1" y1="0" y2="1">
    <stop offset="0" stop-color="#020617"/>
    <stop offset=".5" stop-color="#172554"/>
    <stop offset="1" stop-color="#581c87"/>
  </linearGradient>
  <linearGradient id="bot" x1="0" x2="1">
    <stop offset="0" stop-color="#e0f2fe"/>
    <stop offset="1" stop-color="#c4b5fd"/>
  </linearGradient>
</defs>
<rect width="1200" height="780" fill="url(#bg)"/>
<circle cx="920" cy="150" r="115" fill="#22d3ee" opacity=".16"/>
<circle cx="260" cy="605" r="160" fill="#a855f7" opacity=".18"/>
<g stroke="#38bdf8" stroke-width="3" opacity=".32">
  <path d="M105 230 H330 V365 H500"/>
  <path d="M720 245 H980 V425 H1110"/>
  <path d="M180 640 H455 V520 H650"/>
</g>
<rect x="375" y="160" width="450" height="355" rx="66" fill="url(#bot)" stroke="#ffffff" stroke-opacity=".55" stroke-width="4"/>
<rect x="455" y="272" width="290" height="112" rx="38" fill="#020617"/>
<circle cx="532" cy="328" r="24" fill="#22d3ee"/>
<circle cx="668" cy="328" r="24" fill="#22d3ee"/>
<path d="M532 423 C575 458 625 458 668 423" stroke="#0f172a" stroke-width="12" stroke-linecap="round" fill="none"/>
<rect x="552" y="96" width="96" height="74" rx="33" fill="#c4b5fd"/>
<line x1="600" y1="96" x2="600" y2="48" stroke="#c4b5fd" stroke-width="12" stroke-linecap="round"/>
<circle cx="600" cy="40" r="20" fill="#22d3ee"/>
<rect x="335" y="552" width="530" height="95" rx="38" fill="#0f172a" stroke="#22d3ee" stroke-width="4"/>
<text x="455" y="612" font-family="Arial" font-size="42" font-weight="900" fill="#ffffff">AI ASSISTANT</text>
</svg>