<svg xmlns="http://www.w3.org/2000/svg" width="1200" height="760" viewBox="0 0 1200 760">

<defs>
  <linearGradient id="bg" x1="0" x2="1" y1="0" y2="1">
    <stop offset="0" stop-color="#020617"/>
    <stop offset="0.5" stop-color="#172554"/>
    <stop offset="1" stop-color="#581c87"/>
  </linearGradient>
  <linearGradient id="bot" x1="0" x2="1">
    <stop offset="0" stop-color="#e0f2fe"/>
    <stop offset="1" stop-color="#c4b5fd"/>
  </linearGradient>
</defs>
<rect width="1200" height="760" fill="url(#bg)"/>
<circle cx="930" cy="160" r="110" fill="#22d3ee" opacity="0.18"/>
<circle cx="250" cy="570" r="145" fill="#a855f7" opacity="0.16"/>
<g stroke="#38bdf8" stroke-width="3" opacity="0.35">
  <path d="M100 210 H310 V350 H520"/>
  <path d="M720 250 H980 V420 H1110"/>
  <path d="M155 610 H460 V500 H650"/>
</g>
<rect x="382" y="150" width="436" height="350" rx="60" fill="url(#bot)" stroke="#ffffff" stroke-opacity=".55" stroke-width="4"/>
<rect x="455" y="260" width="290" height="110" rx="38" fill="#020617"/>
<circle cx="530" cy="315" r="24" fill="#22d3ee"/>
<circle cx="670" cy="315" r="24" fill="#22d3ee"/>
<path d="M530 410 C575 445 625 445 670 410" stroke="#0f172a" stroke-width="12" stroke-linecap="round" fill="none"/>
<rect x="552" y="92" width="96" height="72" rx="32" fill="#c4b5fd"/>
<line x1="600" y1="92" x2="600" y2="45" stroke="#c4b5fd" stroke-width="12" stroke-linecap="round"/>
<circle cx="600" cy="38" r="20" fill="#22d3ee"/>
<rect x="335" y="530" width="530" height="95" rx="38" fill="#0f172a" stroke="#22d3ee" stroke-width="4"/>
<text x="432" y="590" font-family="Arial" font-size="42" font-weight="800" fill="#ffffff">AI ASSISTANT</text>

<rect x="54" y="50" width="610" height="145" rx="30" fill="#ffffff" opacity="0.10"/>
<rect x="54" y="50" width="610" height="145" rx="30" fill="none" stroke="#ffffff" stroke-opacity="0.28"/>
<text x="88" y="112" font-family="Arial, sans-serif" font-size="44" font-weight="900" fill="#ffffff">AI Assistant</text>
<text x="90" y="160" font-family="Arial, sans-serif" font-size="24" font-weight="600" fill="#dffbff">цифрлық көмекші</text>
</svg>