<svg xmlns="http://www.w3.org/2000/svg" width="1200" height="780" viewBox="0 0 1200 780">
<defs>
  <radialGradient id="g1" cx="50%" cy="45%" r="70%">
    <stop offset="0" stop-color="#22d3ee" stop-opacity=".42"/>
    <stop offset=".48" stop-color="#7c3aed" stop-opacity=".22"/>
    <stop offset="1" stop-color="#020617"/>
  </radialGradient>
  <linearGradient id="stroke" x1="0" x2="1" y1="0" y2="1">
    <stop offset="0" stop-color="#22d3ee"/>
    <stop offset=".52" stop-color="#8b5cf6"/>
    <stop offset="1" stop-color="#22c55e"/>
  </linearGradient>
</defs>
<rect width="1200" height="780" fill="#020617"/>
<rect width="1200" height="780" fill="url(#g1)"/>
<g opacity=".32" stroke="#67e8f9" stroke-width="2">
  <path d="M90 170 C250 90 330 280 480 190 S760 80 900 220 S1070 185 1140 100" fill="none"/>
  <path d="M80 610 C250 440 380 680 560 520 S790 410 955 560 S1090 515 1160 430" fill="none"/>
  <path d="M140 290 H1040 M140 390 H1040 M140 490 H1040" fill="none"/>
</g>
<g>
  <rect x="260" y="122" width="680" height="520" rx="58" fill="#0f172a" stroke="url(#stroke)" stroke-width="6"/>
  <rect x="318" y="185" width="565" height="84" rx="28" fill="#111827" stroke="#334155"/>
  <circle cx="362" cy="227" r="18" fill="#22d3ee"/>
  <rect x="395" y="207" width="365" height="17" rx="8" fill="#e2e8f0" opacity=".88"/>
  <rect x="395" y="237" width="255" height="13" rx="7" fill="#94a3b8"/>
  <rect x="318" y="310" width="430" height="75" rx="25" fill="#1e293b" stroke="#334155"/>
  <rect x="460" y="426" width="423" height="78" rx="25" fill="#0e7490" stroke="#67e8f9"/>
  <rect x="318" y="544" width="565" height="46" rx="23" fill="#020617" stroke="#475569"/>
  <circle cx="852" cy="567" r="16" fill="#22c55e"/>
  <path d="M844 567 L851 574 L864 558" fill="none" stroke="#020617" stroke-width="5" stroke-linecap="round" stroke-linejoin="round"/>
</g>
<g fill="#22d3ee">
  <circle cx="170" cy="165" r="9"/><circle cx="1030" cy="155" r="9"/><circle cx="160" cy="620" r="9"/><circle cx="1040" cy="610" r="9"/>
</g>
<text x="355" y="365" font-family="Arial" font-size="30" font-weight="800" fill="#e2e8f0">Сұрақ қойыңыз...</text>
<text x="500" y="474" font-family="Arial" font-size="30" font-weight="800" fill="#ffffff">AI жауап беріп жатыр</text>
</svg>