<svg xmlns="http://www.w3.org/2000/svg" width="1200" height="760" viewBox="0 0 1200 760">

<defs>
<linearGradient id="g" x1="0" y1="0" x2="1" y2="1"><stop stop-color="#061222"/><stop offset=".48" stop-color="#0b6175"/><stop offset="1" stop-color="#f5b65d"/></linearGradient>
<linearGradient id="w" x1="0" y1="0" x2="1" y2="0"><stop stop-color="#2dd4bf"/><stop offset="1" stop-color="#72e58b"/></linearGradient>
</defs>
<rect width="1200" height="760" fill="url(#g)"/>
<circle cx="965" cy="150" r="82" fill="#ffd47b" opacity=".92"/>
<path d="M0 520 L230 260 L420 520 Z" fill="#123f4b"/>
<path d="M260 535 L585 190 L920 535 Z" fill="#0e3746"/>
<path d="M650 535 L900 300 L1200 535 Z" fill="#185a54"/>
<path d="M585 190 L510 310 L665 310 Z" fill="#f3fbff"/>
<path d="M230 260 L175 340 L290 340 Z" fill="#eef8ff"/>
<rect y="525" width="1200" height="235" fill="url(#w)" opacity=".78"/>
<path d="M120 610 C260 560 370 670 520 610 C695 540 840 675 1080 585" stroke="#fff" stroke-width="12" fill="none" opacity=".55"/>
<path d="M60 675 C240 630 345 720 525 670 C680 625 820 720 1135 650" stroke="#fff" stroke-width="7" fill="none" opacity=".35"/>

<rect x="48" y="48" width="560" height="164" rx="30" fill="#ffffff" opacity=".13"/>
<rect x="48" y="48" width="560" height="164" rx="30" fill="none" stroke="#ffffff" stroke-opacity=".35"/>
<text x="82" y="112" font-family="Arial, sans-serif" font-size="44" font-weight="800" fill="#ffffff">Алатау бағыты</text>
<text x="84" y="162" font-family="Arial, sans-serif" font-size="24" font-weight="600" fill="#e9fff1">тау, көл және таза ауа</text>
</svg>