<svg xmlns="http://www.w3.org/2000/svg" width="900" height="560" viewBox="0 0 900 560" role="img" aria-label="Қала саябағы">
  <defs>
    <linearGradient id="sky" x1="0" x2="1" y1="0" y2="1">
      <stop offset="0" stop-color="#c8edff"/>
      <stop offset="1" stop-color="#f7fff8"/>
    </linearGradient>
  </defs>
  <rect width="900" height="560" fill="url(#sky)"/>
  
<circle cx="730" cy="110" r="54" fill="#ffd36a"/>
<rect x="90" y="235" width="95" height="195" fill="#6ba985"/>
<rect x="215" y="190" width="115" height="240" fill="#478f67"/>
<rect x="360" y="255" width="90" height="175" fill="#75b68e"/>
<rect x="490" y="210" width="125" height="220" fill="#2f7657"/>
<rect x="650" y="260" width="120" height="170" fill="#64a77d"/>
<path d="M0 430 C180 390 280 460 450 420 C620 380 720 455 900 405 L900 560 L0 560 Z" fill="#2e7d56"/>
<g fill="#eaf6ef" opacity="0.85">
  <rect x="112" y="260" width="18" height="18"/>
  <rect x="145" y="260" width="18" height="18"/>
  <rect x="245" y="220" width="18" height="18"/>
  <rect x="282" y="220" width="18" height="18"/>
  <rect x="523" y="240" width="18" height="18"/>
  <rect x="563" y="240" width="18" height="18"/>
</g>

  <rect y="430" width="900" height="130" fill="#1f6b46"/>
  <text x="52" y="78" font-family="Arial, sans-serif" font-size="34" font-weight="700" fill="#153c2a">Қала саябағы</text>
  <text x="52" y="118" font-family="Arial, sans-serif" font-size="20" fill="#315948">Жасыл орта және демалыс</text>
</svg>