<svg xmlns="http://www.w3.org/2000/svg" width="1200" height="760" viewBox="0 0 1200 760">
<defs>
  <linearGradient id="bg" x1="0" x2="1" y1="0" y2="1">
    <stop offset="0" stop-color="#1e1b4b"/>
    <stop offset=".52" stop-color="#701a75"/>
    <stop offset="1" stop-color="#be185d"/>
  </linearGradient>
</defs>
<rect width="1200" height="760" fill="url(#bg)"/>
<rect x="120" y="100" width="960" height="560" rx="52" fill="#020617" opacity=".92" stroke="#ffffff" stroke-opacity=".3"/>
<rect x="180" y="155" width="250" height="120" rx="28" fill="#18181b" stroke="#f0abfc"/>
<rect x="475" y="155" width="250" height="120" rx="28" fill="#18181b" stroke="#f472b6"/>
<rect x="770" y="155" width="250" height="120" rx="28" fill="#18181b" stroke="#c084fc"/>
<text x="215" y="207" font-family="Arial" font-size="26" font-weight="900" fill="#fff">Заказтар</text>
<text x="520" y="207" font-family="Arial" font-size="26" font-weight="900" fill="#fff">Табыс</text>
<text x="810" y="207" font-family="Arial" font-size="26" font-weight="900" fill="#fff">Рейтинг</text>
<text x="215" y="248" font-family="Arial" font-size="36" font-weight="900" fill="#f0abfc">128</text>
<text x="520" y="248" font-family="Arial" font-size="36" font-weight="900" fill="#f472b6">2.4M</text>
<text x="810" y="248" font-family="Arial" font-size="36" font-weight="900" fill="#c084fc">4.8</text>
<rect x="180" y="335" width="840" height="260" rx="34" fill="#111827" stroke="#334155"/>
<polyline points="230,545 340,500 450,515 560,430 670,460 780,370 900,395 980,330" fill="none" stroke="#f0abfc" stroke-width="10" stroke-linecap="round" stroke-linejoin="round"/>
<g fill="#ffffff">
  <circle cx="230" cy="545" r="9"/><circle cx="340" cy="500" r="9"/><circle cx="450" cy="515" r="9"/><circle cx="560" cy="430" r="9"/><circle cx="670" cy="460" r="9"/><circle cx="780" cy="370" r="9"/><circle cx="900" cy="395" r="9"/><circle cx="980" cy="330" r="9"/>
</g>
<text x="205" y="635" font-family="Arial" font-size="34" font-weight="900" fill="#fff">Seller analytics dashboard</text>
</svg>