<svg xmlns="http://www.w3.org/2000/svg" width="1200" height="760" viewBox="0 0 1200 760">
<defs>
  <linearGradient id="bg" x1="0" x2="1" y1="0" y2="1">
    <stop offset="0" stop-color="#4c1d95"/>
    <stop offset=".45" stop-color="#a21caf"/>
    <stop offset="1" stop-color="#f43f5e"/>
  </linearGradient>
  <linearGradient id="accent" x1="0" x2="1">
    <stop offset="0" stop-color="#f0abfc"/>
    <stop offset="1" stop-color="#fdf2f8"/>
  </linearGradient>
</defs>
<rect width="1200" height="760" fill="url(#bg)"/>
<circle cx="1030" cy="130" r="130" fill="#ffffff" opacity=".12"/>
<circle cx="170" cy="630" r="180" fill="#ffffff" opacity=".10"/>
<rect x="130" y="118" width="940" height="540" rx="56" fill="#111827" opacity=".93" stroke="#ffffff" stroke-opacity=".35"/>
<rect x="190" y="170" width="820" height="78" rx="28" fill="#ffffff" opacity=".12"/>
<circle cx="230" cy="209" r="18" fill="#f0abfc"/>
<rect x="270" y="196" width="470" height="18" rx="9" fill="#fce7f3"/>
<rect x="780" y="190" width="175" height="38" rx="19" fill="#ec4899"/>
<text x="815" y="215" font-family="Arial" font-size="18" font-weight="800" fill="#fff">Іздеу</text>
<g>
  <rect x="195" y="300" width="210" height="255" rx="30" fill="#fff"/>
  <rect x="455" y="300" width="210" height="255" rx="30" fill="#fff"/>
  <rect x="715" y="300" width="210" height="255" rx="30" fill="#fff"/>
  <rect x="225" y="330" width="150" height="105" rx="20" fill="#fce7f3"/>
  <rect x="485" y="330" width="150" height="105" rx="20" fill="#ede9fe"/>
  <rect x="745" y="330" width="150" height="105" rx="20" fill="#fdf2f8"/>
  <rect x="230" y="462" width="125" height="14" rx="7" fill="#111827"/>
  <rect x="490" y="462" width="125" height="14" rx="7" fill="#111827"/>
  <rect x="750" y="462" width="125" height="14" rx="7" fill="#111827"/>
  <rect x="230" y="496" width="90" height="18" rx="9" fill="#ec4899"/>
  <rect x="490" y="496" width="90" height="18" rx="9" fill="#7c3aed"/>
  <rect x="750" y="496" width="90" height="18" rx="9" fill="#ec4899"/>
</g>
<text x="210" y="620" font-family="Arial" font-size="44" font-weight="900" fill="#ffffff">Marketplace Smart Demo</text>
<text x="212" y="660" font-family="Arial" font-size="24" font-weight="700" fill="#fdf2f8">каталог, іздеу, себет және AI ұсыныс</text>
</svg>