<svg xmlns="http://www.w3.org/2000/svg" width="1200" height="780" viewBox="0 0 1200 780">
<defs>
  <radialGradient id="bg" cx="50%" cy="42%" r="75%">
    <stop offset="0" stop-color="#1d4ed8"/>
    <stop offset=".54" stop-color="#111827"/>
    <stop offset="1" stop-color="#020617"/>
  </radialGradient>
</defs>
<rect width="1200" height="780" fill="url(#bg)"/>
<g stroke="#67e8f9" stroke-width="4" opacity=".70">
  <path d="M155 170 L340 120 L520 240 L710 150 L920 260 L1040 155"/>
  <path d="M155 170 L260 420 L520 240 L610 500 L920 260 L1040 155"/>
  <path d="M260 420 L430 610 L610 500 L790 620 L920 260"/>
  <path d="M340 120 L430 610 L710 150 L790 620"/>
</g>
<g>
  <circle cx="155" cy="170" r="24" fill="#22d3ee"/>
  <circle cx="340" cy="120" r="24" fill="#a855f7"/>
  <circle cx="520" cy="240" r="24" fill="#22d3ee"/>
  <circle cx="710" cy="150" r="24" fill="#a855f7"/>
  <circle cx="920" cy="260" r="24" fill="#22d3ee"/>
  <circle cx="1040" cy="155" r="24" fill="#a855f7"/>
  <circle cx="260" cy="420" r="24" fill="#22c55e"/>
  <circle cx="610" cy="500" r="24" fill="#22d3ee"/>
  <circle cx="430" cy="610" r="24" fill="#a855f7"/>
  <circle cx="790" cy="620" r="24" fill="#22c55e"/>
</g>
<rect x="235" y="300" width="730" height="150" rx="38" fill="#020617" opacity=".78" stroke="#38bdf8"/>
<text x="315" y="365" font-family="Arial" font-size="46" font-weight="900" fill="#ffffff">NEURAL NETWORK</text>
<text x="355" y="410" font-family="Arial" font-size="26" font-weight="700" fill="#cffafe">дерек арқылы үйренетін модель</text>
</svg>