<svg xmlns="http://www.w3.org/2000/svg" width="1200" height="760" viewBox="0 0 1200 760"><defs><radialGradient id="bg" cx="50%" cy="45%" r="72%"><stop offset="0" stop-color="#f0abfc"/><stop offset=".52" stop-color="#7e22ce"/><stop offset="1" stop-color="#020617"/></radialGradient></defs><rect width="1200" height="760" fill="url(#bg)"/><g stroke="#f0abfc" stroke-width="4" opacity=".45"><path d="M140 180 L340 120 L530 245 L720 155 L930 260 L1070 150"/><path d="M230 420 L530 245 L620 515 L930 260"/><path d="M230 420 L440 620 L620 515 L820 620"/></g><g><circle cx="140" cy="180" r="20" fill="#22d3ee"/><circle cx="340" cy="120" r="20" fill="#f0abfc"/><circle cx="530" cy="245" r="20" fill="#22d3ee"/><circle cx="720" cy="155" r="20" fill="#f0abfc"/><circle cx="930" cy="260" r="20" fill="#22d3ee"/><circle cx="1070" cy="150" r="20" fill="#f0abfc"/><circle cx="230" cy="420" r="20" fill="#22c55e"/><circle cx="620" cy="515" r="20" fill="#22d3ee"/><circle cx="440" cy="620" r="20" fill="#f0abfc"/><circle cx="820" cy="620" r="20" fill="#22c55e"/></g><rect x="230" y="295" width="740" height="175" rx="42" fill="#020617" opacity=".86" stroke="#f0abfc"/><text x="350" y="365" font-family="Arial" font-size="50" font-weight="900" fill="#fff">AI Mentor WB</text><text x="300" y="418" font-family="Arial" font-size="28" font-weight="700" fill="#fce7f3">отвечает на вопросы продавца и строит план действий</text></svg>