<svg xmlns="http://www.w3.org/2000/svg" width="1200" height="760" viewBox="0 0 1200 760"><defs><linearGradient id="bg" x1="0" x2="1" y1="0" y2="1"><stop offset="0" stop-color="#16001f"/><stop offset=".5" stop-color="#64107a"/><stop offset="1" stop-color="#e11d75"/></linearGradient><linearGradient id="line" x1="0" x2="1"><stop offset="0" stop-color="#f0abfc"/><stop offset="1" stop-color="#22d3ee"/></linearGradient></defs><rect width="1200" height="760" fill="url(#bg)"/><circle cx="1030" cy="130" r="135" fill="#fff" opacity=".12"/><circle cx="150" cy="635" r="180" fill="#fff" opacity=".10"/><rect x="110" y="88" width="980" height="585" rx="56" fill="#0f172a" opacity=".96" stroke="#fff" stroke-opacity=".32"/><text x="170" y="170" font-family="Arial" font-size="46" font-weight="900" fill="#fff">WB Seller Academy</text><text x="172" y="212" font-family="Arial" font-size="24" font-weight="700" fill="#fce7f3">реалистичный учебный кабинет продавца</text><rect x="170" y="260" width="250" height="120" rx="28" fill="#18181b" stroke="#f0abfc"/><rect x="475" y="260" width="250" height="120" rx="28" fill="#18181b" stroke="#f472b6"/><rect x="780" y="260" width="250" height="120" rx="28" fill="#18181b" stroke="#c084fc"/><text x="200" y="310" font-family="Arial" font-size="24" font-weight="900" fill="#fff">Выручка</text><text x="505" y="310" font-family="Arial" font-size="24" font-weight="900" fill="#fff">Заказы</text><text x="810" y="310" font-family="Arial" font-size="24" font-weight="900" fill="#fff">Маржа</text><text x="200" y="355" font-family="Arial" font-size="34" font-weight="900" fill="#f0abfc">2.4M ₸</text><text x="505" y="355" font-family="Arial" font-size="34" font-weight="900" fill="#f472b6">384</text><text x="810" y="355" font-family="Arial" font-size="34" font-weight="900" fill="#c084fc">24%</text><rect x="170" y="430" width="860" height="170" rx="34" fill="#111827" stroke="#334155"/><polyline points="215,560 325,525 435,540 545,485 655,505 765,455 875,470 980,420" fill="none" stroke="url(#line)" stroke-width="10" stroke-linecap="round" stroke-linejoin="round"/></svg>